<svg height="990" width="720" xmlns="http://www.w3.org/2000/svg">
<rect height="990" fill="#555" width="720"></rect>
<text fill="#7f7" font-family="Courier New" font-size="12" xml:space="preserve">
<tspan x="10" y="26">9 megabytes installed</tspan>
<tspan x="10" y="42"></tspan>
<tspan x="10" y="58">node_modules</tspan>
<tspan x="10" y="74">└─┬ gitter-cli@0.8.5 </tspan>
<tspan x="10" y="90">  ├── blessed@0.1.81 </tspan>
<tspan x="10" y="106">  ├─┬ chalk@1.1.3 </tspan>
<tspan x="10" y="122">  │ ├── ansi-styles@2.2.1 </tspan>
<tspan x="10" y="138">  │ ├── escape-string-regexp@1.0.5 </tspan>
<tspan x="10" y="154">  │ ├─┬ has-ansi@2.0.0 </tspan>
<tspan x="10" y="170">  │ │ └── ansi-regex@2.1.1 </tspan>
<tspan x="10" y="186">  │ ├── strip-ansi@3.0.1 </tspan>
<tspan x="10" y="202">  │ └── supports-color@2.0.0 </tspan>
<tspan x="10" y="218">  ├─┬ commander@2.9.0 </tspan>
<tspan x="10" y="234">  │ └── graceful-readlink@1.0.1 </tspan>
<tspan x="10" y="250">  ├─┬ html-to-text@1.6.2 </tspan>
<tspan x="10" y="266">  │ ├── htmlparser@1.7.7 </tspan>
<tspan x="10" y="282">  │ ├─┬ optimist@0.6.1 </tspan>
<tspan x="10" y="298">  │ │ └── minimist@0.0.10 </tspan>
<tspan x="10" y="314">  │ ├── underscore@1.8.3 </tspan>
<tspan x="10" y="330">  │ └── underscore.string@2.4.0 </tspan>
<tspan x="10" y="346">  ├── keychain@0.0.4 </tspan>
<tspan x="10" y="362">  ├── marked@0.3.6 </tspan>
<tspan x="10" y="378">  ├─┬ node-gitter@1.2.11 </tspan>
<tspan x="10" y="394">  │ ├── debug@0.8.1 </tspan>
<tspan x="10" y="410">  │ ├── eventemitter3@0.1.6 </tspan>
<tspan x="10" y="426">  │ ├─┬ faye@1.0.3 </tspan>
<tspan x="10" y="442">  │ │ ├─┬ concat-stream@1.6.0 </tspan>
<tspan x="10" y="458">  │ │ │ ├── inherits@2.0.3 </tspan>
<tspan x="10" y="474">  │ │ │ ├─┬ readable-stream@2.2.9 </tspan>
<tspan x="10" y="490">  │ │ │ │ ├── buffer-shims@1.0.0 </tspan>
<tspan x="10" y="506">  │ │ │ │ ├── core-util-is@1.0.2 </tspan>
<tspan x="10" y="522">  │ │ │ │ ├── isarray@1.0.0 </tspan>
<tspan x="10" y="538">  │ │ │ │ ├── process-nextick-args@1.0.7 </tspan>
<tspan x="10" y="554">  │ │ │ │ ├── string_decoder@1.0.0 </tspan>
<tspan x="10" y="570">  │ │ │ │ └── util-deprecate@1.0.2 </tspan>
<tspan x="10" y="586">  │ │ │ └── typedarray@0.0.6 </tspan>
<tspan x="10" y="602">  │ │ ├── cookiejar@2.1.1 </tspan>
<tspan x="10" y="618">  │ │ ├─┬ csprng@0.1.2 </tspan>
<tspan x="10" y="634">  │ │ │ └── sequin@0.1.1 </tspan>
<tspan x="10" y="650">  │ │ └─┬ faye-websocket@0.11.1 </tspan>
<tspan x="10" y="666">  │ │   └─┬ websocket-driver@0.6.5 </tspan>
<tspan x="10" y="682">  │ │     └── websocket-extensions@0.1.1 </tspan>
<tspan x="10" y="698">  │ ├─┬ gitter-faye@1.1.0-h </tspan>
<tspan x="10" y="714">  │ │ ├── faye-websocket@0.9.4 </tspan>
<tspan x="10" y="730">  │ │ ├─┬ tough-cookie@2.3.2 </tspan>
<tspan x="10" y="746">  │ │ │ └── punycode@1.4.1 </tspan>
<tspan x="10" y="762">  │ │ └─┬ tunnel-agent@0.6.0 </tspan>
<tspan x="10" y="778">  │ │   └── safe-buffer@5.0.1 </tspan>
<tspan x="10" y="794">  │ ├── q@1.0.1 </tspan>
<tspan x="10" y="810">  │ └── qs@1.2.2 </tspan>
<tspan x="10" y="826">  ├── q@1.5.0 </tspan>
<tspan x="10" y="842">  ├─┬ winston@1.1.2 </tspan>
<tspan x="10" y="858">  │ ├── async@1.0.0 </tspan>
<tspan x="10" y="874">  │ ├── colors@1.0.3 </tspan>
<tspan x="10" y="890">  │ ├── cycle@1.0.3 </tspan>
<tspan x="10" y="906">  │ ├── eyes@0.1.8 </tspan>
<tspan x="10" y="922">  │ ├── isstream@0.1.2 </tspan>
<tspan x="10" y="938">  │ ├── pkginfo@0.3.1 </tspan>
<tspan x="10" y="954">  │ └── stack-trace@0.0.9 </tspan>
<tspan x="10" y="970">  └── wordwrap@0.0.2</tspan>
</text>
</svg>
